# xmcd CD database file
#
# Track frame offsets:
#	150
#	40727
#	83693
#	114047
#	138375
#	173515
#	210323
#	237946
#	259854
#	293315
#
# Disc length: 4202 seconds
#
# Revision: 2
# Processed by: cddbd v1.5.1PL0 Copyright (c) Steve Scherf et al.
# Submitted via: CDex 1.51
#
DISCID=7210680a
DTITLE=Francesco D'Andrea Trio - Standard Time - Chapter 3
DYEAR=2002
DGENRE=Jazz
TTITLE0=Indiana
TTITLE1=Body And Soul
TTITLE2=All The Things You Are
TTITLE3=Out Of Nowhere
TTITLE4=Just Friends
TTITLE5=I Can't Get Started
TTITLE6=What Is This Thing Called love
TTITLE7=But Not For Me
TTITLE8=Sweet Georgia Brown
TTITLE9=How High The Moon
EXTD=YEAR: 2002
EXTT0=
EXTT1=
EXTT2=
EXTT3=
EXTT4=
EXTT5=
EXTT6=
EXTT7=
EXTT8=
EXTT9=
PLAYORDER=
